<svg aria-hidden="true" style="position: absolute; width: 0; height: 0; overflow: hidden;" version="1.1" xmlns="http://www.w3.org/2000/svg" xmlns:xlink="http://www.w3.org/1999/xlink">
<defs>
<symbol id="icon-weather" viewBox="0 0 49 32">
<title>weather</title>
<path d="M9.705 15.529l1.062 0.113-0.159-1.056c-0.084-0.557-0.129-1.125-0.129-1.707 0-6.475 5.375-11.758 12.051-11.758 5.463 0 10.061 3.544 11.545 8.388l0.211 0.689 0.711-0.116c0.594-0.097 1.2-0.149 1.825-0.149 5.957 0 10.758 4.714 10.758 10.499 0 5.781-4.802 10.502-10.761 10.502h-28.064c-4.397 0-7.929-3.481-7.929-7.735 0-4.249 3.531-7.731 7.929-7.731 0.31 0 0.62 0.025 0.951 0.061z"></path>
</symbol>
<symbol id="icon-cloudy" viewBox="0 0 38 32">
<title>cloudy</title>
<path d="M36.175 18.088h-2.783c-0.768 0-1.392-0.623-1.392-1.392s0.623-1.392 1.392-1.392h2.783c0.768 0 1.392 0.623 1.392 1.392s-0.623 1.392-1.392 1.392zM30.709 8.825c-0.543 0.543-1.424 0.543-1.968 0s-0.544-1.424 0-1.968l1.968-1.968c0.544-0.543 1.424-0.543 1.968 0s0.544 1.424 0 1.968l-1.968 1.968zM29.093 18.088h-28.276c0.196-0.482 0.426-0.946 0.685-1.392h19.253c0.029 0.049 0.065 0.093 0.093 0.143 0.462-0.079 0.93-0.143 1.415-0.143 1.478 0 2.866 0.389 4.070 1.062 0.067-0.344 0.104-0.7 0.104-1.062 0-3.074-2.492-5.565-5.566-5.565-1.409 0-2.692 0.528-3.672 1.391h-11.451c1.596-0.884 3.43-1.391 5.384-1.391 1.094 0 2.15 0.161 3.147 0.456 1.527-1.968 3.909-3.238 6.592-3.238 4.611 0 8.348 3.737 8.348 8.348 0 0.475-0.047 0.939-0.125 1.392zM20.87 5.565c-0.768 0-1.391-0.623-1.391-1.391v-2.782c0-0.768 0.623-1.391 1.391-1.391 0.769 0 1.392 0.623 1.392 1.391v2.782c0 0.768-0.623 1.391-1.392 1.391zM11.031 8.825l-1.967-1.968c-0.543-0.543-0.543-1.424 0-1.968s1.424-0.543 1.967 0l1.968 1.968c0.543 0.543 0.543 1.424 0 1.968s-1.423 0.543-1.968 0zM3.786 13.913h14.667c0.484 0.425 0.93 0.889 1.335 1.392h-17.338c0.404-0.503 0.852-0.966 1.336-1.392zM30.489 23.652h-30.393c-0.057-0.456-0.097-0.918-0.097-1.392h30.128c0.159 0.448 0.281 0.913 0.361 1.392zM3.786 30.61h24.686c-0.473 0.527-1.007 0.998-1.6 1.39h-21.125c-0.707-0.39-1.36-0.862-1.961-1.39zM1.501 27.827h28.623c-0.171 0.486-0.386 0.951-0.64 1.392h-27.034c-0.351-0.438-0.666-0.904-0.948-1.392zM0.097 20.869c0.059-0.474 0.152-0.936 0.269-1.39h28.362c-0.024 0.068-0.043 0.137-0.070 0.205 0.31 0.368 0.588 0.767 0.831 1.185h-29.392zM0.365 25.044h30.245c0 0.476-0.049 0.938-0.126 1.392h-29.667c-0.182-0.45-0.329-0.916-0.452-1.392z"></path>
</symbol>
<symbol id="icon-wind-speed" viewBox="0 0 51 32">
<title>wind-speed</title>
<path d="M42.697 17.979h-3.371c-1.242 0-2.247-1.005-2.247-2.246s1.006-2.247 2.247-2.247h3.371c1.24 0 2.247-1.007 2.247-2.246 0-1.242-1.007-2.247-2.247-2.247-1.242 0-2.247-1.007-2.247-2.247s1.006-2.247 2.247-2.247c0.154 0 0.304 0.016 0.452 0.046 3.507 0.237 6.288 3.127 6.288 6.695 0 3.721-3.017 6.739-6.739 6.739zM31.461 13.485h-24.716c-1.24 0-2.246 1.007-2.246 2.247s1.006 2.246 2.246 2.246h24.716c3.724 0 6.742 3.019 6.742 6.742 0 3.569-2.781 6.458-6.288 6.695-0.147 0.030-0.298 0.046-0.454 0.046-1.24 0-2.247-1.007-2.247-2.247 0-1.242 1.007-2.247 2.247-2.247 1.242 0 2.247-1.007 2.247-2.247s-1.006-2.247-2.247-2.247h-24.716c-3.722 0-6.74-3.018-6.74-6.74 0-3.567 2.781-6.457 6.288-6.696 0.147-0.029 0.299-0.045 0.453-0.045h24.716c1.242 0 2.247-1.007 2.247-2.247s-1.006-2.247-2.247-2.247c-1.24 0-2.247-1.006-2.247-2.247 0-1.24 1.007-2.247 2.247-2.247 0.156 0 0.307 0.017 0.454 0.046 3.507 0.237 6.288 3.127 6.288 6.696 0 3.721-3.018 6.74-6.742 6.74z"></path>
</symbol>
<symbol id="icon-humidity" viewBox="0 0 26 32">
<title>humidity</title>
<path style="stroke: var(--color4, #7a7a7a)" stroke-linejoin="miter" stroke-linecap="butt" stroke-miterlimit="4" stroke-width="4.3636" d="M5.252 26.124l-0.001-0.001c-4.090-4.088-4.090-10.716 0-14.806l7.403-7.403 7.403 7.403c0 0 0.001 0.001 0.001 0.001 4.086 4.091 4.085 10.72-0 14.807-4.091 4.091-10.721 4.089-14.806 0z"></path>
</symbol>
</defs>
</svg>
